<?xml version="1.0" encoding="UTF-8" standalone="no"?>
<!-- Created with Inkscape (http://www.inkscape.org/) -->

<svg
   width="57.617889mm"
   height="16.821325mm"
   viewBox="0 0 57.617889 16.821325"
   version="1.1"
   id="svg5"
   inkscape:version="1.1.1 (3bf5ae0d25, 2021-09-20)"
   sodipodi:docname="Logo Pertamina Gas Negara.svg"
   xmlns:inkscape="http://www.inkscape.org/namespaces/inkscape"
   xmlns:sodipodi="http://sodipodi.sourceforge.net/DTD/sodipodi-0.dtd"
   xmlns="http://www.w3.org/2000/svg"
   xmlns:svg="http://www.w3.org/2000/svg">
  <sodipodi:namedview
     id="namedview7"
     pagecolor="#ffffff"
     bordercolor="#666666"
     borderopacity="1.0"
     inkscape:pageshadow="2"
     inkscape:pageopacity="0.0"
     inkscape:pagecheckerboard="0"
     inkscape:document-units="mm"
     showgrid="false"
     fit-margin-top="0"
     fit-margin-left="0"
     fit-margin-right="0"
     fit-margin-bottom="0"
     inkscape:zoom="4"
     inkscape:cx="119.375"
     inkscape:cy="51.375"
     inkscape:window-width="1920"
     inkscape:window-height="1017"
     inkscape:window-x="-8"
     inkscape:window-y="-8"
     inkscape:window-maximized="1"
     inkscape:current-layer="layer1" />
  <defs
     id="defs2">
    <clipPath
       clipPathUnits="userSpaceOnUse"
       id="clipPath838">
      <path
         d="M 0,0 H 595.275 V 841.89 H 0 Z"
         id="path836" />
    </clipPath>
    <clipPath
       clipPathUnits="userSpaceOnUse"
       id="clipPath868">
      <path
         d="M 0,0 H 595.276 V 841.89 H 0 Z"
         id="path866" />
    </clipPath>
    <clipPath
       clipPathUnits="userSpaceOnUse"
       id="clipPath900">
      <path
         d="M 0,0 H 595.276 V 841.89 H 0 Z"
         id="path898" />
    </clipPath>
    <clipPath
       clipPathUnits="userSpaceOnUse"
       id="clipPath936">
      <path
         d="M 0,0 H 595.276 V 841.89 H 0 Z"
         id="path934" />
    </clipPath>
    <clipPath
       clipPathUnits="userSpaceOnUse"
       id="clipPath954">
      <path
         d="M 0,0 H 595.276 V 841.89 H 0 Z"
         id="path952" />
    </clipPath>
    <clipPath
       clipPathUnits="userSpaceOnUse"
       id="clipPath982">
      <path
         d="M 0,0 H 595.276 V 841.89 H 0 Z"
         id="path980" />
    </clipPath>
    <clipPath
       clipPathUnits="userSpaceOnUse"
       id="clipPath996">
      <path
         d="M 0,0 H 595.276 V 841.89 H 0 Z"
         id="path994" />
    </clipPath>
  </defs>
  <g
     inkscape:label="Layer 1"
     inkscape:groupmode="layer"
     id="layer1"
     transform="translate(-226.35835,-18.769283)">
    <g
       id="g862"
       transform="matrix(0.35277777,0,0,-0.35277777,86.689364,303.06929)">
      <g
         id="g864"
         clip-path="url(#clipPath868)">
        <g
           id="g870"
           transform="translate(434.2991,788.4022)">
          <path
             d="M 0,0 C 0,0 -2.259,0 -3.244,-1.553 L -10.86,-13.401 H 2.749 c 0,0 2.186,-0.211 3.316,1.341 L 14.103,0 Z"
             style="fill:#c8d300;fill-opacity:1;fill-rule:nonzero;stroke:none"
             id="path872" />
        </g>
        <g
           id="g874"
           transform="translate(413.1891,788.4022)">
          <path
             d="m 0,0 c 0,0 -2.467,-0.424 -3.456,-1.976 l -13.821,-21.296 h 13.118 c 0,0 2.679,0 3.807,1.552 L 14.104,0 Z"
             style="fill:#0069b4;fill-opacity:1;fill-rule:nonzero;stroke:none"
             id="path876" />
        </g>
        <g
           id="g878"
           transform="translate(437.5419,805.8898)">
          <path
             d="m 0,0 c 0,0 2.258,0 3.243,-1.55 l 7.618,-11.849 H -2.751 c 0,0 -2.185,-0.211 -3.315,1.341 L -14.104,0 Z"
             style="fill:#e30613;fill-opacity:1;fill-rule:nonzero;stroke:none"
             id="path880" />
        </g>
        <g
           id="g882"
           transform="translate(459.8414,786.2855)">
          <path
             d="M 0,0 H 0.402 C 1.158,0 1.71,-0.151 2.054,-0.454 2.399,-0.755 2.571,-1.236 2.571,-1.896 2.571,-2.608 2.399,-3.129 2.054,-3.454 1.71,-3.777 1.158,-3.94 0.402,-3.94 H 0 Z m 0,-11.294 v 5.12 h 0.765 c 1.452,0 2.59,0.371 3.41,1.11 0.821,0.738 1.231,1.757 1.231,3.058 0,1.405 -0.405,2.443 -1.223,3.115 C 3.37,1.781 2.109,2.117 0.402,2.117 h -3.203 v -13.411 z m 14.991,0 v 2.437 H 10.11 v 3.363 h 4.881 v 2.435 H 10.11 v 2.756 h 4.881 v 2.42 H 7.327 v -13.411 z m 8.555,6.101 c 0.854,0.11 1.552,0.491 2.091,1.147 0.54,0.651 0.808,1.441 0.808,2.361 0,1.27 -0.391,2.222 -1.181,2.854 C 24.473,1.8 23.29,2.117 21.706,2.117 h -3.983 v -13.411 h 2.784 v 6.266 l 3.422,-6.266 h 3.211 z m -3.039,5.118 h 0.419 c 1.073,0 1.8,-0.138 2.188,-0.417 0.389,-0.275 0.585,-0.744 0.585,-1.404 0,-0.628 -0.181,-1.07 -0.544,-1.323 -0.362,-0.252 -1.106,-0.382 -2.229,-0.382 H 20.507 Z M 36.805,-0.32 V 2.117 H 27.646 V -0.32 h 3.182 v -10.974 h 2.791 V -0.32 Z m 3.957,-5.871 1.405,4.278 c 0.034,0.116 0.09,0.346 0.16,0.692 0.071,0.343 0.145,0.733 0.223,1.166 0.07,-0.451 0.138,-0.833 0.206,-1.143 0.063,-0.311 0.118,-0.533 0.158,-0.661 l 1.459,-4.332 z m -1.69,-5.103 0.908,2.851 h 5.043 l 1.058,-2.851 h 3.163 L 44.22,2.117 h -3.182 l -4.953,-13.411 z m 13.053,0 0.943,8.09 0.01,0.034 c 0.105,0.905 0.16,1.668 0.16,2.292 v 0.392 c 0.143,-0.69 0.253,-1.213 0.334,-1.573 0.078,-0.363 0.131,-0.582 0.154,-0.66 l 2.715,-8.575 h 1.563 l 2.758,8.575 c 0.065,0.195 0.135,0.482 0.218,0.866 0.08,0.379 0.166,0.832 0.251,1.357 -0.006,-0.053 -0.01,-0.116 -0.012,-0.186 -0.003,-0.07 -0.006,-0.175 -0.006,-0.316 0,-0.264 0.012,-0.547 0.038,-0.851 0.023,-0.304 0.07,-0.756 0.143,-1.355 l 0.95,-8.09 h 2.638 L 62.993,2.117 H 60.12 l -2.551,-7.878 c -0.052,-0.153 -0.11,-0.392 -0.171,-0.718 -0.058,-0.329 -0.112,-0.698 -0.16,-1.115 -0.049,0.411 -0.11,0.773 -0.173,1.091 -0.06,0.316 -0.119,0.557 -0.172,0.725 L 54.385,2.117 H 51.468 L 49.487,-11.294 Z M 69.626,2.117 h -2.784 v -13.409 h 2.784 z m 5.629,-13.411 v 7.658 c 0,0.6 -0.016,1.093 -0.043,1.489 -0.03,0.395 -0.078,0.783 -0.143,1.166 0.22,-0.554 0.427,-1.033 0.621,-1.434 0.196,-0.399 0.377,-0.706 0.545,-0.928 l 5.921,-7.951 h 2.727 V 2.117 h -2.654 v -7.501 c 0,-0.586 0.013,-1.076 0.043,-1.467 0.027,-0.391 0.076,-0.783 0.14,-1.181 -0.213,0.544 -0.42,1.013 -0.618,1.415 -0.198,0.4 -0.381,0.711 -0.546,0.929 l -5.761,7.805 h -2.889 v -13.411 z m 15.661,5.103 1.404,4.278 c 0.035,0.116 0.087,0.346 0.158,0.692 0.072,0.343 0.148,0.733 0.224,1.166 0.069,-0.451 0.139,-0.833 0.202,-1.143 0.069,-0.311 0.118,-0.533 0.163,-0.661 l 1.458,-4.332 z m -1.691,-5.103 0.906,2.851 h 5.043 l 1.056,-2.851 h 3.167 L 94.374,2.117 h -3.185 l -4.953,-13.411 z"
             style="fill:#000000;fill-opacity:1;fill-rule:nonzero;stroke:none"
             id="path884" />
        </g>
        <g
           id="g886"
           transform="translate(463.4941,762.6833)">
          <path
             d="M 0,0 H 2.538 C 2.467,-0.716 2.131,-1.332 1.529,-1.846 0.927,-2.356 0.248,-2.61 -0.508,-2.61 c -0.887,0 -1.711,0.34 -2.471,1.021 -0.814,0.734 -1.22,1.668 -1.22,2.802 0,1.098 0.365,2.013 1.094,2.742 0.73,0.743 1.633,1.114 2.709,1.114 1.2,0 2.218,-0.556 3.052,-1.668 L 3.751,4.449 C 3.113,5.179 2.465,5.706 1.806,6.031 1.116,6.357 0.373,6.519 -0.422,6.519 -1.903,6.519 -3.16,6.003 -4.192,4.97 -5.225,3.942 -5.741,2.689 -5.741,1.213 c 0,-1.446 0.507,-2.685 1.522,-3.718 1.015,-1.028 2.235,-1.542 3.659,-1.542 1.459,0 2.661,0.531 3.605,1.595 0.418,0.474 0.714,0.984 0.89,1.529 0.18,0.589 0.271,1.266 0.271,2.03 V 1.444 H 0 Z m 12.722,-3.856 h 1.681 L 9.545,6.961 4.509,-3.856 h 1.654 l 1.134,2.472 h 4.357 z M 7.937,0.059 9.519,3.52 11.028,0.059 Z m 10.744,6.46 c -0.87,0 -1.597,-0.259 -2.182,-0.778 -0.584,-0.514 -0.876,-1.153 -0.876,-1.918 0,-1.134 0.696,-1.995 2.089,-2.584 l 0.982,-0.408 c 0.255,-0.11 0.475,-0.226 0.66,-0.347 0.184,-0.12 0.335,-0.25 0.451,-0.388 0.116,-0.139 0.202,-0.29 0.257,-0.455 0.055,-0.165 0.083,-0.346 0.083,-0.544 0,-0.492 -0.159,-0.899 -0.475,-1.22 -0.316,-0.32 -0.714,-0.481 -1.193,-0.481 -0.607,0 -1.068,0.22 -1.384,0.659 -0.176,0.229 -0.299,0.642 -0.37,1.24 l -1.555,-0.343 c 0.14,-0.949 0.494,-1.685 1.061,-2.208 0.576,-0.523 1.305,-0.785 2.188,-0.785 0.932,0 1.712,0.308 2.341,0.923 0.624,0.611 0.936,1.384 0.936,2.32 0,0.699 -0.192,1.289 -0.574,1.77 -0.382,0.481 -0.986,0.889 -1.813,1.223 L 18.292,2.61 c -0.738,0.304 -1.107,0.703 -1.107,1.2 0,0.36 0.14,0.659 0.422,0.897 0.281,0.241 0.635,0.362 1.061,0.362 0.347,0 0.631,-0.07 0.85,-0.211 0.211,-0.123 0.433,-0.387 0.666,-0.791 L 21.43,4.805 C 20.771,5.948 19.854,6.519 18.681,6.519 M 29.248,-3.856 V 3.27 L 36.67,-4.476 V 6.322 H 35.134 V -0.751 L 27.712,7.014 V -3.856 Z M 44.725,6.322 H 39.109 V -3.856 h 5.616 v 1.443 h -4.08 v 3.402 h 3.962 v 1.443 h -3.962 v 2.446 h 4.08 z M 51.976,0 h 2.538 c -0.07,-0.716 -0.406,-1.332 -1.008,-1.846 -0.602,-0.51 -1.281,-0.764 -2.037,-0.764 -0.888,0 -1.712,0.34 -2.472,1.021 -0.813,0.734 -1.22,1.668 -1.22,2.802 0,1.098 0.365,2.013 1.095,2.742 0.729,0.743 1.632,1.114 2.709,1.114 1.2,0 2.217,-0.556 3.052,-1.668 l 1.094,1.048 c -0.637,0.73 -1.285,1.257 -1.945,1.582 -0.69,0.326 -1.432,0.488 -2.228,0.488 -1.481,0 -2.737,-0.516 -3.77,-1.549 -1.033,-1.028 -1.549,-2.281 -1.549,-3.757 0,-1.446 0.507,-2.685 1.523,-3.718 1.015,-1.028 2.234,-1.542 3.658,-1.542 1.459,0 2.661,0.531 3.606,1.595 0.417,0.474 0.714,0.984 0.89,1.529 0.18,0.589 0.27,1.266 0.27,2.03 v 0.337 h -4.206 z m 12.722,-3.856 h 1.681 L 61.521,6.961 56.485,-3.856 h 1.655 l 1.133,2.472 h 4.358 z m -4.785,3.915 1.582,3.461 1.509,-3.461 z m 12.821,1.418 c 0.413,0.518 0.62,1.138 0.62,1.858 0,0.923 -0.33,1.666 -0.989,2.228 -0.598,0.506 -1.569,0.759 -2.914,0.759 H 67.652 V -3.856 h 1.536 V 0.31 h 0.276 l 2.907,-4.166 h 1.879 l -3.151,4.337 c 0.677,0.145 1.222,0.477 1.635,0.996 m -3.546,3.401 h 0.547 c 1.415,0 2.122,-0.521 2.122,-1.562 0,-1.112 -0.727,-1.668 -2.182,-1.668 h -0.487 z m 13.638,-8.734 h 1.681 L 79.649,6.961 74.613,-3.856 h 1.654 l 1.134,2.472 h 4.357 z m -4.786,3.915 1.582,3.461 1.51,-3.461 z"
             style="fill:#e30613;fill-opacity:1;fill-rule:nonzero;stroke:none"
             id="path888" />
        </g>
      </g>
    </g>
  </g>
</svg>
